HIERARCHY
ROOT Hips
{
	OFFSET 0.000000 0.000000 0.000000
	CHANNELS 6 Xposition Yposition Zposition Zrotation Yrotation Xrotation 
	JOINT LHipJoint
	{
		OFFSET 0.000000 0.000000 0.000000
		CHANNELS 3 Zrotation Yrotation Xrotation
		JOINT LeftUpLeg
		{
			OFFSET 1.363060 -1.794630 0.839290
			CHANNELS 3 Zrotation Yrotation Xrotation
			JOINT LeftLeg
			{
				OFFSET 2.448110 -6.726130 0.000000
				CHANNELS 3 Zrotation Yrotation Xrotation
				JOINT LeftFoot
				{
					OFFSET 2.562200 -7.039590 0.000000
					CHANNELS 3 Zrotation Yrotation Xrotation
					JOINT LeftToeBase
					{
						OFFSET 0.157640 -0.433110 2.322550
						CHANNELS 3 Zrotation Yrotation Xrotation
						End Site
						{
							OFFSET 0.000000 0.000000 0.000000
						}
					}
				}
			}
		}
	}
	JOINT RHipJoint
	{
		OFFSET 0.000000 0.000000 0.000000
		CHANNELS 3 Zrotation Yrotation Xrotation
		JOINT RightUpLeg
		{
			OFFSET -1.305520 -1.794630 0.839290
			CHANNELS 3 Zrotation Yrotation Xrotation
			JOINT RightLeg
			{
				OFFSET -2.542530 -6.985550 0.000000
				CHANNELS 3 Zrotation Yrotation Xrotation
				JOINT RightFoot
				{
					OFFSET -2.568260 -7.056230 0.000000
					CHANNELS 3 Zrotation Yrotation Xrotation
					JOINT RightToeBase
					{
						OFFSET -0.164730 -0.452590 2.363150
						CHANNELS 3 Zrotation Yrotation Xrotation
						End Site
						{
							OFFSET 0.000000 0.000000 0.000000
						}
					}
				}
			}
		}
	}
	JOINT LowerBack
	{
		OFFSET 0.000000 0.000000 0.000000
		CHANNELS 3 Zrotation Yrotation Xrotation
		JOINT Spine
		{
			OFFSET 0.028270 2.035590 -0.193380
			CHANNELS 3 Zrotation Yrotation Xrotation
			JOINT Spine1
			{
				OFFSET 0.056720 2.048850 -0.042750
				CHANNELS 3 Zrotation Yrotation Xrotation
				JOINT Neck
				{
					OFFSET 0.000000 0.000000 0.000000
					CHANNELS 3 Zrotation Yrotation Xrotation
					JOINT Neck1
					{
						OFFSET -0.054170 1.746240 0.172020
						CHANNELS 3 Zrotation Yrotation Xrotation
						JOINT Head
						{
							OFFSET 0.104070 1.761360 -0.123970
							CHANNELS 3 Zrotation Yrotation Xrotation
							End Site
							{
								OFFSET 0.000000 0.000000 0.000000
							}
						}
					}
				}
				JOINT LeftShoulder
				{
					OFFSET 0.000000 0.000000 0.000000
					CHANNELS 3 Zrotation Yrotation Xrotation
					JOINT LeftArm
					{
						OFFSET 3.362410 1.200890 -0.311210
						CHANNELS 3 Zrotation Yrotation Xrotation
						JOINT LeftForeArm
						{
							OFFSET 4.983000 -0.000000 -0.000000
							CHANNELS 3 Zrotation Yrotation Xrotation
							JOINT LeftHand
							{
								OFFSET 3.483560 -0.000000 -0.000000
								CHANNELS 3 Zrotation Yrotation Xrotation
								JOINT LeftFingerBase
								{
									OFFSET 0.000000 0.000000 0.000000
									CHANNELS 3 Zrotation Yrotation Xrotation
									JOINT LeftHandIndex1
									{
										OFFSET 0.715260 -0.000000 -0.000000
										CHANNELS 3 Zrotation Yrotation Xrotation
										End Site
										{
											OFFSET 0.000000 0.000000 0.000000
										}
									}
								}
								JOINT LThumb
								{
									OFFSET 0.000000 0.000000 0.000000
									CHANNELS 3 Zrotation Yrotation Xrotation
									End Site
									{
										OFFSET 0.000000 0.000000 0.000000
									}
								}
							}
						}
					}
				}
				JOINT RightShoulder
				{
					OFFSET 0.000000 0.000000 0.000000
					CHANNELS 3 Zrotation Yrotation Xrotation
					JOINT RightArm
					{
						OFFSET -3.136600 1.374050 -0.404650
						CHANNELS 3 Zrotation Yrotation Xrotation
						JOINT RightForeArm
						{
							OFFSET -5.241900 -0.000000 -0.000000
							CHANNELS 3 Zrotation Yrotation Xrotation
							JOINT RightHand
							{
								OFFSET -3.444170 -0.000000 -0.000000
								CHANNELS 3 Zrotation Yrotation Xrotation
								JOINT RightFingerBase
								{
									OFFSET 0.000000 0.000000 0.000000
									CHANNELS 3 Zrotation Yrotation Xrotation
									JOINT RightHandIndex1
									{
										OFFSET -0.622530 -0.000000 -0.000000
										CHANNELS 3 Zrotation Yrotation Xrotation
										End Site
										{
											OFFSET 0.000000 0.000000 0.000000
										}
									}
								}
								JOINT RThumb
								{
									OFFSET 0.000000 0.000000 0.000000
									CHANNELS 3 Zrotation Yrotation Xrotation
									End Site
									{
										OFFSET 0.000000 0.000000 0.000000
									}
								}
							}
						}
					}
				}
			}
		}
	}
}
MOTION
Frames: 11
Frame Time: 0.033333
-0.033797 16.417078 -0.033797 -3.157038 -3.418885 4.026194 -2.270595 18.973772 3.593388 -16.187321 -6.310475 -15.050941 -8.563621 -10.314353 -28.296794 5.234797 20.715476 49.880747 0.000000 0.000000 0.000000 -3.279869 -22.062364 -6.093473 32.317952 4.045329 -2.780378 -2.032820 -4.606391 21.082528 -0.610979 11.246153 -28.439893 0.000000 0.000000 0.000000 2.515615 0.741018 5.663320 0.392821 0.635826 13.503231 1.548252 1.558021 -8.158851 6.932910 -1.178747 -10.408459 -2.981536 -0.252623 -2.059584 0.000000 0.000000 0.000000 2.949804 9.427799 8.605949 -70.303791 -5.517909 17.088067 -8.422799 -81.910548 0.208395 4.618985 -15.893559 0.092871 4.734343 -15.867293 0.000000 0.000000 0.000000 0.000000 0.000000 0.000000 0.000000 -8.075102 -7.965579 7.579628 70.540610 6.285786 18.493622 11.851389 82.100845 0.389635 -1.870255 13.710603 0.190662 -1.908834 13.709309 0.000000 0.000000 0.000000 0.000000 0.000000 0.000000 0.000000 
-0.026039 16.446146 0.123049 -2.792789 -3.454839 4.135660 -1.961768 19.028828 3.451216 -17.057220 -6.212960 -14.516606 -8.406022 -10.061219 -27.495583 4.588478 19.746904 47.650538 0.000000 0.000000 0.000000 -3.042858 -22.096328 -5.748447 31.789878 4.873008 -3.607303 -2.820844 -4.901746 22.971234 -0.591087 11.229448 -28.546054 0.000000 0.000000 0.000000 2.327203 0.762215 5.524887 0.133364 0.626807 13.494373 1.621768 1.510377 -8.077643 6.942605 -1.181463 -10.392940 -2.973823 -0.251341 -2.050443 0.000000 0.000000 0.000000 3.042434 9.326523 8.609085 -70.304128 -5.605592 16.926653 -8.084027 -82.090332 0.196024 4.737059 -15.933125 0.086408 4.855617 -15.905399 0.000000 0.000000 0.000000 0.000000 0.000000 0.000000 0.000000 -8.114734 -7.929192 7.535090 70.648043 6.305626 18.482416 11.607514 82.362615 0.391109 -1.916456 13.770070 0.191312 -1.955867 13.768558 0.000000 0.000000 0.000000 0.000000 0.000000 0.000000 0.000000 
-0.016027 16.477033 0.279298 -2.431022 -3.463916 4.253427 -1.682524 19.059414 3.283669 -17.894313 -6.125560 -14.011932 -8.248131 -9.783451 -26.602289 3.984085 18.738486 45.350715 0.000000 0.000000 0.000000 -2.782954 -22.068327 -5.376099 31.181428 5.677769 -4.454549 -3.539707 -5.179594 24.743184 -0.551193 11.134242 -28.533345 0.000000 0.000000 0.000000 2.142851 0.773833 5.378179 -0.120795 0.608691 13.483022 1.695370 1.454682 -7.995869 6.951955 -1.184410 -10.377048 -2.966992 -0.250165 -2.040478 0.000000 0.000000 0.000000 3.135135 9.220632 8.612997 -70.304686 -5.694829 16.762517 -7.746787 -82.267921 0.183499 4.855162 -15.971406 0.079864 4.976937 -15.942189 0.000000 0.000000 0.000000 0.000000 0.000000 0.000000 0.000000 -8.155130 -7.896679 7.490431 70.755298 6.324722 18.468498 11.363398 82.622913 0.392513 -1.963128 13.828836 0.191925 -2.003383 13.827098 0.000000 0.000000 0.000000 0.000000 0.000000 0.000000 0.000000 
-0.003810 16.509293 0.434547 -2.075752 -3.447708 4.376515 -1.432451 19.070841 3.094622 -18.694101 -6.049292 -13.540770 -8.093160 -9.481333 -25.622802 3.426658 17.701348 43.002380 0.000000 0.000000 0.000000 -2.508136 -21.985289 -4.983850 30.505368 6.444820 -5.307667 -4.188320 -5.443633 26.392866 -0.494585 10.971621 -28.412932 0.000000 0.000000 0.000000 1.965907 0.775944 5.226306 -0.368729 0.581921 13.470127 1.768507 1.391559 -7.913669 6.960813 -1.187579 -10.360819 -2.961004 -0.249086 -2.029795 0.000000 0.000000 0.000000 3.227785 9.110545 8.617529 -70.305431 -5.785574 16.595666 -7.411013 -82.443375 0.170821 4.973298 -16.008402 0.073241 5.098308 -15.977666 0.000000 0.000000 0.000000 0.000000 0.000000 0.000000 0.000000 -8.196452 -7.867676 7.445649 70.862453 6.343309 18.451884 11.119070 82.881742 0.393845 -2.010261 13.886885 0.192502 -2.051375 13.884914 0.000000 0.000000 0.000000 0.000000 0.000000 0.000000 0.000000 
0.010045 16.542516 0.588435 -1.730071 -3.408617 4.502362 -1.211024 19.067731 2.888541 -19.453213 -5.985489 -13.106214 -7.937625 -9.156662 -24.565722 2.918319 16.645519 40.628874 0.000000 0.000000 0.000000 -2.224734 -21.854499 -4.578571 29.773407 7.163046 -6.154691 -4.762946 -5.699660 27.920035 -0.424119 10.750931 -28.196572 0.000000 0.000000 0.000000 1.798852 0.769014 5.071950 -0.609819 0.547179 13.456506 1.840706 1.321789 -7.831173 6.969065 -1.190954 -10.344287 -2.955791 -0.248095 -2.018490 0.000000 0.000000 0.000000 3.320292 8.996765 8.622533 -70.306315 -5.877752 16.426123 -7.076651 -82.616751 0.157992 5.091466 -16.044114 0.066540 5.219726 -16.011829 0.000000 0.000000 0.000000 0.000000 0.000000 0.000000 0.000000 -8.238813 -7.841772 7.400753 70.969582 6.361623 18.432610 10.874562 83.139095 0.395106 -2.057846 13.944205 0.193042 -2.099830 13.941992 0.000000 0.000000 0.000000 0.000000 0.000000 0.000000 0.000000 
0.026062 16.576258 0.741226 -1.395657 -3.349198 4.628236 -1.015877 19.056283 2.668339 -20.172498 -5.932644 -12.707256 -7.790371 -8.808140 -23.434961 2.458645 15.579233 38.238343 0.000000 0.000000 0.000000 -1.938465 -21.685177 -4.165522 28.999798 7.826629 -6.985496 -5.278160 -5.947467 29.331673 -0.344084 10.484864 -27.896201 0.000000 0.000000 0.000000 1.643117 0.753614 4.917812 -0.843957 0.505223 13.443025 1.911564 1.246174 -7.748701 6.976453 -1.194480 -10.327331 -2.951129 -0.247169 -2.006556 0.000000 0.000000 0.000000 3.412467 8.879892 8.627862 -70.307198 -5.971221 16.254159 -6.743904 -82.787942 0.145030 5.209566 -16.078519 0.059769 5.341087 -16.044656 0.000000 0.000000 0.000000 0.000000 0.000000 0.000000 0.000000 -8.282049 -7.818798 7.355722 71.076556 6.379792 18.410827 10.630136 83.394729 0.396298 -2.105817 14.000737 0.193546 -2.148685 13.998274 0.000000 0.000000 0.000000 0.000000 0.000000 0.000000 0.000000 
0.043767 16.610158 0.892551 -1.074616 -3.272569 4.752208 -0.846703 19.040293 2.438144 -20.849459 -5.891126 -12.345644 -7.648152 -8.437861 -22.240604 2.046903 14.512325 35.852719 0.000000 0.000000 0.000000 -1.653333 -21.484653 -3.750063 28.196300 8.430555 -7.791284 -5.734923 -6.190255 30.631448 -0.257192 10.181582 -27.522154 0.000000 0.000000 0.000000 1.500079 0.730529 4.765944 -1.070747 0.456971 13.430151 1.980792 1.165657 -7.666216 6.983086 -1.198171 -10.310184 -2.947064 -0.246310 -1.994143 0.000000 0.000000 0.000000 3.504377 8.760436 8.633382 -70.308111 -6.065925 16.079610 -6.412414 -82.957169 0.131924 5.327700 -16.111640 0.052923 5.462497 -16.076171 0.000000 0.000000 0.000000 0.000000 0.000000 0.000000 0.000000 -8.326459 -7.798098 7.310594 71.183617 6.398129 18.386533 10.385597 83.648873 0.397423 -2.154209 14.056509 0.194016 -2.197972 14.053789 0.000000 0.000000 0.000000 0.000000 0.000000 0.000000 0.000000 
0.062346 16.643861 1.042395 -0.767569 -3.181850 4.872849 -0.701828 19.022796 2.201688 -21.485186 -5.861599 -12.020632 -7.502211 -8.049062 -20.992166 1.679832 13.449758 33.487009 0.000000 0.000000 0.000000 -1.372112 -21.259669 -3.336280 27.372054 8.973635 -8.566399 -6.132734 -6.432634 31.828603 -0.165281 9.847514 -27.085793 0.000000 0.000000 0.000000 1.370002 0.700721 4.617785 -1.290291 0.403340 13.418283 2.048190 1.081094 -7.583828 6.988937 -1.202000 -10.292892 -2.943489 -0.245507 -1.981294 0.000000 0.000000 0.000000 3.596008 8.638928 8.638985 -70.308993 -6.161755 15.902543 -6.082124 -83.124483 0.118679 5.445864 -16.143473 0.046005 5.583947 -16.106369 0.000000 0.000000 0.000000 0.000000 0.000000 0.000000 0.000000 -8.372054 -7.779291 7.265387 71.290806 6.416808 18.359810 10.140975 83.901520 0.398483 -2.203009 14.111510 0.194452 -2.247677 14.108525 0.000000 0.000000 0.000000 0.000000 0.000000 0.000000 0.000000 
0.081822 16.677089 1.190504 -0.475732 -3.080298 4.988960 -0.580872 19.007115 1.962117 -22.078535 -5.843402 -11.732658 -7.354417 -7.643002 -19.698125 1.355182 12.400431 31.156550 0.000000 0.000000 0.000000 -1.097301 -21.017260 -2.927670 26.538811 9.456133 -9.305215 -6.480610 -6.673442 32.928945 -0.071063 9.490607 -26.595143 0.000000 0.000000 0.000000 1.253642 0.665109 4.474547 -1.502586 0.345322 13.407738 2.113494 0.993448 -7.501627 6.993972 -1.205945 -10.275497 -2.940312 -0.244750 -1.968050 0.000000 0.000000 0.000000 3.687315 8.515974 8.644558 -70.309779 -6.258577 15.723023 -5.752965 -83.289935 0.105300 5.564056 -16.174019 0.039017 5.705436 -16.135251 0.000000 0.000000 0.000000 0.000000 0.000000 0.000000 0.000000 -8.418864 -7.761930 7.220136 71.398160 6.436030 18.330755 9.896315 84.152660 0.399480 -2.252196 14.165728 0.194855 -2.297782 14.162470 0.000000 0.000000 0.000000 0.000000 0.000000 0.000000 0.000000 
0.099387 16.707999 1.334696 -0.217403 -2.965059 5.083511 -0.460924 18.948489 1.706560 -22.615736 -5.796065 -11.410833 -7.182710 -7.257933 -18.472989 1.082502 11.405572 28.953991 0.000000 0.000000 0.000000 -0.816351 -20.708109 -2.556849 25.682258 9.814409 -9.942718 -6.716277 -6.937674 33.868265 0.023450 9.129125 -26.131564 0.000000 0.000000 0.000000 1.099068 0.613960 4.368922 -1.617854 0.275748 13.385403 2.171617 0.908207 -7.444277 7.015471 -1.211906 -10.283206 -2.953493 -0.246020 -1.966354 0.000000 0.000000 0.000000 3.750721 8.418331 8.651847 -70.320229 -6.321301 15.607266 -5.555994 -83.389410 0.096932 5.635337 -16.191177 0.034654 5.778718 -16.151391 0.000000 0.000000 0.000000 0.000000 0.000000 0.000000 0.000000 -8.460906 -7.757166 7.195492 71.468712 6.445662 18.304607 9.744624 84.306378 0.399870 -2.283449 14.197674 0.194992 -2.329613 14.194237 0.000000 0.000000 0.000000 0.000000 0.000000 0.000000 0.000000 
0.116662 16.738021 1.476809 0.026343 -2.847854 5.172898 -0.361743 18.892800 1.452558 -23.113318 -5.757210 -11.120964 -6.999348 -6.863814 -17.227339 0.843538 10.434788 26.810233 0.000000 0.000000 0.000000 -0.542034 -20.393310 -2.194313 24.832581 10.121784 -10.541597 -6.911385 -7.202478 34.732465 0.117067 8.757450 -25.633420 0.000000 0.000000 0.000000 0.955910 0.559641 4.269285 -1.726224 0.204259 13.364332 2.227945 0.822179 -7.387770 7.036832 -1.217972 -10.291484 -2.967288 -0.247350 -1.965071 0.000000 0.000000 0.000000 3.813063 8.321095 8.658994 -70.330812 -6.383540 15.492214 -5.362782 -83.486594 0.088646 5.705436 -16.207557 0.030333 5.850788 -16.166761 0.000000 0.000000 0.000000 0.000000 0.000000 0.000000 0.000000 -8.503481 -7.752935 7.171384 71.538434 6.455520 18.277610 9.595324 84.457079 0.400217 -2.314386 14.228775 0.195107 -2.361124 14.225160 0.000000 0.000000 0.000000 0.000000 0.000000 0.000000 0.000000 
